<?xml version="1.0" encoding="UTF-8"?>
<svg id="svg14" width="483.3pt" height="121.9pt" version="1.1" viewBox="0 0 483.3 121.9" xmlns="http://www.w3.org/2000/svg" xmlns:cc="http://creativecommons.org/ns#" xmlns:dc="http://purl.org/dc/elements/1.1/" xmlns:rdf="http://www.w3.org/1999/02/22-rdf-syntax-ns#">
 <metadata id="metadata18">
  <rdf:RDF>
   <cc:Work rdf:about="">
    <dc:format>image/svg+xml</dc:format>
    <dc:type rdf:resource="http://purl.org/dc/dcmitype/StillImage"/>
    <dc:title/>
   </cc:Work>
  </rdf:RDF>
 </metadata>
 <defs id="defs5">
  <clipPath id="clip1">
   <path id="path2" d="m0 94h483.3v27.898h-483.3z"/>
  </clipPath>
 </defs>
 <g id="surface1">
  <path id="path7" d="m-0.1875 13.895-0.03125 55c0.03125 6.9375 5.707 14 12.895 14h68.945l48.605-83h-9.2227l-43.699 73.477c-25.34-29.73-38.445-43.27-38.488-51.477 0-8.5977 5.5234-14 14-14h30v-8h-48-22.105c-6.1719 0-12.898 6.0625-12.898 14z" fill-rule="evenodd"/>
  <g id="g11" clip-path="url(#clip1)">
   <path id="path9" d="m34.344 104.04c0-0.61328-0.019531-1.2695-0.054687-1.9766-0.039063-0.70312-0.125-1.3984-0.25-2.0898-0.12891-0.69141-0.33203-1.3555-0.61328-1.9961-0.28125-0.63672-0.67969-1.1875-1.1914-1.6484-0.76562-0.71484-1.6094-1.1953-2.5312-1.4375-0.92188-0.24609-1.8672-0.44141-2.8398-0.59766-1.6133-0.050781-3.2031-0.10547-4.7773-0.17188-1.5742-0.0625-3.1641-0.09375-4.7773-0.09375-1.5859 0-3.1562 0.035156-4.7188 0.11328-1.5586 0.078125-3.1211 0.17969-4.6797 0.30859-0.23047 0.050781-0.58203 0.11328-1.0547 0.19141-0.47266 0.074219-1.0117 0.22266-1.6133 0.44141-0.60156 0.21484-1.2148 0.51172-1.8398 0.88281-0.62891 0.37109-1.1953 0.86328-1.707 1.4766-0.58984 0.74219-0.98047 1.4648-1.1719 2.168-0.19141 0.70312-0.35156 1.5039-0.48047 2.3984-0.050781 0.99609-0.10938 1.9883-0.17187 2.9727-0.0625 0.98438-0.097657 1.9766-0.097657 2.9727 0 0.97266 0.035157 1.9297 0.097657 2.8789 0.0625 0.94531 0.13281 1.8906 0.21094 2.8398 0.12891 1.125 0.32812 2.1406 0.59375 3.0469 0.26953 0.91016 0.83984 1.7617 1.707 2.5547 0.87109 0.81641 1.8945 1.3672 3.0703 1.6484s2.3906 0.52344 3.6445 0.73047c1.6133 0.050781 3.2031 0.09375 4.7773 0.13281 1.5742 0.039062 3.1641 0.058593 4.7773 0.058593 1.457 0 2.918-0.027343 4.375-0.078125 1.457-0.050781 2.9141-0.12891 4.3711-0.23047 0.89844-0.12891 1.7656-0.29297 2.6094-0.5 0.84375-0.20312 1.6367-0.61328 2.3789-1.2266 0.48828-0.38281 0.87109-0.80469 1.1523-1.2656 0.28125-0.46094 0.5-0.95312 0.65234-1.4766 0.15234-0.52344 0.25391-1.0703 0.30859-1.6328 0.050781-0.5625 0.085938-1.1367 0.11328-1.7266 0.027344-0.43359 0.042969-0.84766 0.058594-1.2461 0.011719-0.39453 0.019531-0.79688 0.019531-1.207h-8.25c-0.050781 0.51172-0.10938 1.0039-0.17188 1.4766-0.066406 0.47266-0.23828 0.875-0.51953 1.207-0.20312 0.25781-0.46484 0.45703-0.78516 0.59766-0.32031 0.14062-0.63281 0.24219-0.94141 0.30469-0.30469 0.066406-0.57422 0.10938-0.80469 0.13672-0.23047 0.023437-0.35938 0.035156-0.38281 0.035156h-9.9375c-0.078125 0-0.25-0.011719-0.51953-0.035156-0.26953-0.027344-0.57422-0.078125-0.92188-0.15625-0.34375-0.074219-0.70703-0.19141-1.0938-0.34375-0.38281-0.15234-0.72656-0.37109-1.0352-0.65234-0.53516-0.48438-0.85547-1.1016-0.95703-1.8438-0.10547-0.73828-0.16797-1.4805-0.19141-2.2227v-1.9961c0-0.99609 0.015625-1.8789 0.054687-2.6484 0.039063-0.76562 0.12109-1.3555 0.25-1.7656 0.15234-0.53516 0.37891-0.95703 0.67188-1.2656 0.29297-0.30469 0.60156-0.54297 0.92188-0.70703 0.32031-0.16797 0.625-0.27734 0.91797-0.32812 0.29688-0.050781 0.53125-0.089843 0.71094-0.11328 0.20703-0.027344 0.42188-0.046875 0.65234-0.058594 0.23047-0.011718 0.44922-0.019531 0.65234-0.019531 1.7148-0.078125 3.4023-0.11328 5.0664-0.11328 0.81641 0 1.625 0.011719 2.4141 0.035156 0.79297 0.027344 1.5859 0.066406 2.3789 0.11719 0.56641 0.050781 1.0898 0.12891 1.5742 0.23047 0.48828 0.10156 0.89453 0.35547 1.2266 0.76562 0.28125 0.35938 0.44922 0.69922 0.5 1.0195 0.050781 0.31641 0.078125 0.68359 0.078125 1.0898zm2.3711 5.9102c0 0.87109 0.019531 1.7695 0.058594 2.7031 0.035156 0.93359 0.16406 1.8438 0.38281 2.7266 0.21484 0.88281 0.55078 1.7109 0.99609 2.4922 0.44922 0.78125 1.082 1.4531 1.8984 2.0156 0.53906 0.35547 1.082 0.64453 1.6328 0.86328 0.55078 0.21484 1.1133 0.38281 1.6875 0.5 0.57422 0.11328 1.1562 0.20312 1.7461 0.26562 0.58594 0.066407 1.1875 0.10938 1.8047 0.13672 1.5586 0.050781 3.1055 0.089844 4.6406 0.11328 1.5352 0.027344 3.082 0.039063 4.6445 0.039063 1.3789 0 2.7422-0.011719 4.0859-0.039063 1.3398-0.023437 2.6914-0.050781 4.0469-0.074218 0.74219-0.054688 1.4961-0.12891 2.2617-0.23047 0.76953-0.10547 1.5039-0.25781 2.207-0.46094 0.70312-0.20703 1.3828-0.5 2.0352-0.88281 0.65234-0.38672 1.2344-0.89453 1.7461-1.5352 0.66406-0.82031 1.1094-1.6445 1.3398-2.4766 0.23047-0.82812 0.41016-1.7461 0.53906-2.7422 0.050781-0.66406 0.09375-1.3125 0.13281-1.9375 0.039062-0.625 0.070312-1.2578 0.097656-1.8984 0.050781-0.97266 0.0625-1.9453 0.039062-2.918-0.027343-0.97266-0.066406-1.9414-0.11719-2.9141s-0.14844-1.8984-0.28906-2.7812c-0.14062-0.88281-0.45312-1.7734-0.9375-2.668-0.41016-0.71484-0.875-1.3047-1.4023-1.7656-0.52344-0.46094-1.0469-0.81641-1.5703-1.0742-0.52734-0.25391-1.0195-0.44141-1.4805-0.55469-0.45703-0.11719-0.82812-0.19922-1.1094-0.25-0.20703-0.050781-0.41797-0.089844-0.63281-0.11328-0.21875-0.027344-0.42969-0.054688-0.63281-0.078125-1.9961-0.10156-3.9648-0.1875-5.9102-0.25-1.9453-0.0625-3.9023-0.097657-5.8711-0.097657-1.6875 0-3.3516 0.035157-4.9883 0.097657s-3.2852 0.14844-4.9492 0.25c-0.81641 0.12891-1.5664 0.26953-2.2422 0.42188-0.67969 0.15234-1.375 0.44531-2.0938 0.88281-0.97266 0.5625-1.7188 1.2734-2.2422 2.1289-0.52734 0.85547-0.89062 1.8203-1.0938 2.8984-0.050781 0.20312-0.089843 0.41406-0.11719 0.63281-0.023438 0.21484-0.050781 0.42578-0.074219 0.63281zm13.66 5.1406c-1.1523-0.10156-2.082-0.25-2.7852-0.44141s-1.2344-0.53125-1.5898-1.0156c-0.30859-0.43359-0.51172-1.0625-0.61328-1.8828-0.10547-0.81641-0.17969-1.8008-0.23047-2.9531 0.023438-1.0742 0.050781-1.9766 0.074219-2.7031 0.027344-0.73047 0.066406-1.3359 0.11719-1.8242 0.023438-0.10156 0.070313-0.30469 0.13281-0.61328 0.066406-0.30859 0.17188-0.60156 0.32812-0.88281 0.050781-0.12891 0.14062-0.27344 0.26562-0.44141 0.12891-0.16406 0.33594-0.35156 0.61719-0.55469 0.38281-0.28125 0.80469-0.49219 1.2656-0.63281 0.46094-0.14062 1.1641-0.23828 2.1094-0.28906h11.586c0.53906 0.050781 1.0352 0.10156 1.4961 0.15234 0.46094 0.050781 0.87891 0.16797 1.25 0.34766 0.37109 0.17969 0.69531 0.42188 0.97656 0.72656 0.28125 0.30859 0.5 0.73047 0.65234 1.2656 0.10156 0.28125 0.16797 0.55078 0.19141 0.80859 0.027344 0.25391 0.050781 0.53516 0.078125 0.84375v5.8711c-0.078125 0.66406-0.16016 1.168-0.25 1.5156-0.089844 0.34375-0.22266 0.65625-0.40234 0.9375-0.20703 0.35938-0.46094 0.64844-0.76953 0.86328-0.30469 0.21875-0.63672 0.38281-0.99609 0.5-0.35938 0.11328-0.75 0.20312-1.1719 0.26953-0.42188 0.0625-0.84766 0.10938-1.2852 0.13281zm27.27-20.68v27.086h7.9414v-20.602l11.816 20.602h6.6367l11.855-20.488v20.488h8.0586v-27.086h-13.238l-9.8594 17.766-9.8203-17.766zm49.637 0v27.086h8.5586v-6.7891h14.039c0.56641 0 1.1836-0.011719 1.8633-0.039063 0.67578-0.027344 1.3555-0.082031 2.0312-0.17188 0.67969-0.089844 1.3398-0.24219 1.9766-0.46094 0.64062-0.21875 1.2148-0.51953 1.7266-0.90234 0.74219-0.5625 1.3047-1.3047 1.6875-2.2266 0.38672-0.91797 0.65234-1.8125 0.80859-2.6836 0.15234-0.87109 0.23438-1.6328 0.25-2.2852 0.011719-0.64844 0.015625-1.0156 0.015625-1.0898 0-0.35938-0.003906-0.69922-0.015625-1.0195-0.015625-0.32031-0.035156-0.65625-0.058593-1.0156-0.027344-0.5625-0.058594-1.1133-0.097657-1.6484-0.039062-0.53906-0.11328-1.0508-0.23047-1.5352-0.11328-0.48828-0.28516-0.96484-0.51562-1.4414-0.23047-0.47266-0.55078-0.9375-0.96094-1.3984-0.28125-0.33203-0.58594-0.63281-0.92188-0.90234-0.33203-0.26953-0.73438-0.51172-1.207-0.73047-0.47266-0.21484-1.0312-0.38672-1.668-0.51562-0.64062-0.12891-1.4062-0.20703-2.3047-0.23047-0.73828-0.050782-1.4961-0.050782-2.2617 0zm21.066 6.4453c0.50781 0.050781 1.0078 0.12891 1.4961 0.23047 0.48438 0.10156 0.88281 0.32031 1.1875 0.65234 0.20312 0.20312 0.36328 0.46484 0.48047 0.78516 0.11328 0.32031 0.20312 0.62891 0.26953 0.92188 0.0625 0.29297 0.10156 0.55078 0.11328 0.76562 0.011719 0.21875 0.019532 0.33984 0.019532 0.36719 0 0.48438-0.050782 0.88672-0.15234 1.207-0.10156 0.32031-0.20703 0.58203-0.30859 0.78906-0.17969 0.35547-0.39062 0.63672-0.63281 0.84375-0.24219 0.20312-0.50391 0.35547-0.78516 0.45703-0.28125 0.10547-0.60156 0.16016-0.96094 0.17578-0.35547 0.011718-0.74219 0.019531-1.1484 0.019531h-12.125v-7.2148zm13.801-6.4453v18.57c0.10156 0.89453 0.23047 1.7461 0.38281 2.5508 0.15625 0.80469 0.48828 1.6172 1 2.4375 0.66406 1.0469 1.4961 1.8203 2.4922 2.3203 1 0.5 2.0742 0.85156 3.2227 1.0547 0.28125 0.050782 0.55859 0.089844 0.82422 0.11719 0.26953 0.023437 0.54688 0.0625 0.82812 0.11328 1.4805 0.078125 2.9609 0.14062 4.4297 0.19141 1.4727 0.050782 2.9492 0.078125 4.4336 0.078125 1.3008 0 2.582-0.011718 3.8359-0.039062 1.2539-0.027344 2.5312-0.050781 3.8359-0.078125 1.125-0.10156 2.1914-0.24219 3.2031-0.42188 1.0117-0.17969 2.0156-0.57422 3.0117-1.1875 0.71875-0.4375 1.293-0.93359 1.7266-1.4961s0.77344-1.1211 1.0156-1.6719c0.24609-0.54688 0.41797-1.0547 0.51953-1.5156 0.10156-0.45703 0.17969-0.82812 0.23047-1.1094 0.050781-0.33594 0.089844-0.66016 0.11719-0.98047 0.023437-0.32031 0.050781-0.64453 0.074218-0.97656v-17.957h-8.3633v16.344c-0.050781 0.58984-0.14062 1.2031-0.26953 1.8438-0.12891 0.63672-0.41016 1.1758-0.84375 1.6094-0.28125 0.25781-0.625 0.44922-1.0352 0.57422-0.41016 0.12891-1.0625 0.25781-1.957 0.38672h-7.9805c-1.4844 0.023438-2.6797-0.046875-3.5898-0.21094-0.90625-0.16797-1.5898-0.58203-2.0508-1.25-0.35938-0.50781-0.57031-1.0742-0.63281-1.6875-0.0625-0.61328-0.10938-1.2148-0.13281-1.8008v-15.809zm37.285 0v6.293h11.969v20.793h8.5195v-20.832h12.199v-6.2539zm34.062 0v27.086h30.27v-6.1367h-22.023v-4.7578h20.836v-5.6797h-20.836v-4.5273h22.023v-5.9844zm33.754 0v27.086h8.4766v-6.9062h14.199c0.53516 0.050781 1.043 0.14062 1.5156 0.26953 0.47266 0.12891 0.86328 0.41016 1.168 0.84375 0.20703 0.35938 0.33203 0.71875 0.38281 1.0742 0.054687 0.35938 0.078125 0.71875 0.078125 1.0742v3.6445h8.4023v-4.7188c0-0.71484-0.039062-1.3867-0.11328-2.0117-0.078125-0.62891-0.35938-1.2344-0.84375-1.8242-0.66797-0.84375-1.5039-1.3438-2.5156-1.4961-1.0078-0.15234-2.0781-0.23047-3.2031-0.23047 0.48828-0.078125 1.0117-0.17188 1.5742-0.28906 0.5625-0.11328 1.1133-0.27344 1.6484-0.47656 0.53906-0.20703 1.0352-0.46094 1.4961-0.76953 0.46094-0.30469 0.85938-0.69141 1.1914-1.1523 0.17969-0.22656 0.32031-0.46484 0.42188-0.70703 0.10156-0.24219 0.17969-0.41797 0.23047-0.51953 0.125-0.41016 0.23047-0.86328 0.30469-1.3633 0.078125-0.49609 0.13672-0.96875 0.17188-1.418 0.039062-0.44922 0.058593-0.82422 0.058593-1.1328v-0.57422c0-0.10156-0.003906-0.34375-0.019531-0.73047-0.011719-0.38281-0.050781-0.83594-0.11328-1.3594-0.066406-0.52734-0.17188-1.082-0.32812-1.6719-0.15234-0.58594-0.37109-1.1367-0.65234-1.6484-0.074219-0.12891-0.23047-0.34375-0.46094-0.65234-0.22656-0.30859-0.52344-0.60156-0.87891-0.88281-0.53906-0.43359-1.1094-0.76172-1.7109-0.97656-0.59766-0.21875-1.2188-0.37109-1.8594-0.46094s-1.2969-0.12109-1.9766-0.097656c-0.67578 0.027343-1.3594 0.050781-2.0508 0.078125zm8.5156 6.4844h14.004c0.61719 0.050781 1.1992 0.12109 1.7461 0.21094 0.55078 0.089844 0.99219 0.32422 1.3242 0.71094 0.17969 0.22656 0.32031 0.49219 0.42188 0.78516 0.10156 0.29297 0.17188 0.58203 0.21094 0.86328 0.039063 0.28125 0.066407 0.53125 0.078125 0.74609 0.011719 0.21875 0.019532 0.35547 0.019532 0.40625s-0.007813 0.19141-0.019532 0.42188c-0.011718 0.23047-0.066406 0.49609-0.15234 0.80469-0.089844 0.30469-0.21875 0.60547-0.38672 0.90234-0.16406 0.29297-0.40234 0.53125-0.70703 0.70703-0.33203 0.17969-0.76172 0.29688-1.2852 0.34766-0.52734 0.050781-1.1836 0.074218-1.9766 0.074218h-13.277zm35.711-6.4844h-9.0547l14.465 27.086h11.012l15.27-27.086h-9.2852l-11.355 20.832zm32.949 27.086h8.5938v-27.086h-8.5938zm11.387-8.8984c0 0.51172 0.007813 1.0664 0.019531 1.668 0.011719 0.60156 0.0625 1.207 0.15234 1.8203 0.089844 0.61719 0.23828 1.2031 0.44141 1.7656s0.5 1.0508 0.88281 1.4609c0.33203 0.35547 0.70312 0.65625 1.1133 0.89844 0.41016 0.24609 0.84375 0.44141 1.3047 0.59766 0.46094 0.15234 0.92188 0.26562 1.3789 0.34375 0.46094 0.078125 0.92188 0.15234 1.3828 0.23047 1.8398 0.10156 3.6562 0.19922 5.4492 0.28906 1.7891 0.089844 3.5938 0.13281 5.4102 0.13281 1.6875 0 3.3477-0.03125 4.9883-0.097656 1.6367-0.0625 3.2969-0.14453 4.9844-0.24609 0.84766-0.12891 1.6641-0.28906 2.457-0.48047s1.5078-0.51953 2.1484-0.98047c0.23047-0.17969 0.42969-0.35547 0.59375-0.53516 0.16797-0.17969 0.33984-0.38281 0.51953-0.61328 0.43359-0.58984 0.77344-1.3047 1.0156-2.1484 0.24219-0.84766 0.36719-2.0352 0.36719-3.5703 0-0.99609-0.070312-1.8594-0.21094-2.5898-0.14453-0.73047-0.33594-1.3555-0.57812-1.8789-0.24219-0.52344-0.52344-0.96484-0.84375-1.3242-0.32031-0.35938-0.64453-0.66406-0.97656-0.92188-0.23047-0.17969-0.46875-0.33203-0.71094-0.46094-0.24219-0.125-0.51953-0.23438-0.82422-0.32422-0.30859-0.089844-0.66016-0.17188-1.0547-0.25-0.39844-0.078125-0.87891-0.14062-1.4414-0.19141l-16.266-0.57422c-0.51172-0.050781-1-0.125-1.4609-0.21094-0.45703-0.089843-0.86719-0.36719-1.2266-0.82812-0.074219-0.074218-0.17188-0.22266-0.28906-0.44141-0.11328-0.21484-0.17188-0.46484-0.17188-0.74609s0.066406-0.53906 0.19141-0.76953c0.12891-0.22656 0.21875-0.38281 0.26953-0.45703 0.33203-0.4375 0.73047-0.69141 1.1914-0.76953 0.45703-0.074219 0.94531-0.12891 1.457-0.15234 0.79297-0.027344 1.5742-0.050781 2.3398-0.078125 0.76562-0.023438 1.5469-0.039063 2.3398-0.039063 1 0 2.0039 0.019532 3.0117 0.058594 1.0117 0.039063 2.0156 0.082031 3.0117 0.13672 0.53906 0.050781 0.98047 0.12109 1.3242 0.21094 0.34766 0.085938 0.62891 0.21484 0.84375 0.38281 0.21875 0.16406 0.39062 0.40625 0.51953 0.72656 0.12891 0.32031 0.25391 0.73828 0.38281 1.25l8.2109 0.035157c0.027343-0.58594 0.03125-1.1797 0.019531-1.7812-0.011719-0.60156-0.078125-1.1797-0.19141-1.7266-0.11719-0.55078-0.30078-1.082-0.55859-1.5938-0.25391-0.51172-0.61328-0.98438-1.0742-1.418-0.35547-0.33203-0.73438-0.60938-1.1289-0.82812-0.39844-0.21484-0.78125-0.39453-1.1523-0.53516s-0.69922-0.23828-0.98047-0.28906c-0.28125-0.050782-0.49609-0.089844-0.64844-0.11328l-1.5-0.23047c-1.6367-0.078125-3.2656-0.15234-4.8906-0.23047s-3.2539-0.11719-4.8906-0.11719c-1.4844 0-2.9609 0.027344-4.4336 0.078125-1.4688 0.050782-2.9453 0.10156-4.4297 0.15234-1.1523 0.12891-2.2266 0.32031-3.2227 0.57812-1 0.25391-1.8945 0.80469-2.6875 1.6484-0.48438 0.51172-0.85547 1.0859-1.1133 1.7266-0.17578 0.43359-0.3125 0.92188-0.40234 1.457-0.089843 0.53906-0.15234 1.0547-0.19141 1.5547-0.039062 0.5-0.0625 0.92188-0.078125 1.2656-0.011719 0.34766-0.015625 0.54297-0.015625 0.59766 0 1.3789 0.15625 2.5 0.47656 3.3555 0.32031 0.85547 0.69922 1.5156 1.1328 1.9766 0.33203 0.35547 0.68359 0.64453 1.0547 0.86328 0.37109 0.21484 0.73438 0.39453 1.0938 0.53516s0.67969 0.23828 0.96094 0.28906c0.28125 0.050782 0.48438 0.089844 0.61328 0.11328 0.20312 0.054687 0.40234 0.085937 0.59375 0.097656 0.19141 0.011719 0.39062 0.042969 0.59375 0.097656 0.64062 0.050781 1.2734 0.09375 1.9023 0.13281 0.625 0.039062 1.2578 0.082031 1.8984 0.13281 1.9961 0.12891 3.9844 0.20703 5.9648 0.23047 1.9844 0.027344 3.9727 0.066406 5.9648 0.11719 0.97266 0.125 1.7031 0.23438 2.1875 0.32422 0.48828 0.089844 0.89844 0.36328 1.2305 0.82422 0.17578 0.25781 0.28516 0.48828 0.32422 0.69141 0.039062 0.20703 0.058593 0.37109 0.058593 0.5 0 0.46094-0.15234 0.88281-0.46094 1.2656-0.30859 0.38281-0.67969 0.65234-1.1133 0.80469-0.43359 0.17969-0.89453 0.26172-1.3789 0.25-0.48828-0.011719-0.79297-0.019532-0.92188-0.019532-0.94531 0.027344-1.8789 0.050782-2.8008 0.078125-0.92188 0.023438-1.8438 0.023438-2.7617 0-0.87109-0.027343-1.7266-0.050781-2.5742-0.078125-0.84375-0.023437-1.6992-0.0625-2.5703-0.11328-0.89453-0.078125-1.5586-0.21875-1.9922-0.42188-0.4375-0.20703-0.73047-0.52734-0.88281-0.96094-0.10156-0.23047-0.16016-0.47266-0.17188-0.72656-0.015625-0.25781-0.019531-0.53906-0.019531-0.84766zm37.781 8.8984h8.5977v-27.086h-8.5977zm11.348-11.547c0 0.87109 0.019532 1.7695 0.058594 2.7031 0.039063 0.93359 0.16797 1.8438 0.38281 2.7266 0.21875 0.88281 0.55078 1.7109 1 2.4922 0.44531 0.78125 1.0781 1.4531 1.8984 2.0156 0.53516 0.35547 1.0781 0.64453 1.6289 0.86328 0.55078 0.21484 1.1133 0.38281 1.6875 0.5 0.57812 0.11328 1.1602 0.20312 1.7461 0.26562 0.58984 0.066407 1.1914 0.10938 1.8047 0.13672 1.5586 0.050781 3.1094 0.089844 4.6406 0.11328 1.5352 0.027344 3.0859 0.039063 4.6445 0.039063 1.3828 0 2.7422-0.011719 4.0859-0.039063 1.3438-0.023437 2.6914-0.050781 4.0469-0.074218 0.74219-0.054688 1.4961-0.12891 2.2656-0.23047 0.76562-0.10547 1.5-0.25781 2.207-0.46094 0.70312-0.20703 1.3789-0.5 2.0312-0.88281 0.65234-0.38672 1.2344-0.89453 1.7461-1.5352 0.66406-0.82031 1.1133-1.6445 1.3438-2.4766 0.23047-0.82812 0.41016-1.7461 0.53516-2.7422 0.050781-0.66406 0.097656-1.3125 0.13672-1.9375 0.039063-0.625 0.070313-1.2578 0.09375-1.8984 0.050782-0.97266 0.066407-1.9453 0.039063-2.918-0.023438-0.97266-0.0625-1.9414-0.11328-2.9141-0.050782-0.97266-0.14844-1.8984-0.28906-2.7812-0.14062-0.88281-0.45312-1.7734-0.94141-2.668-0.40625-0.71484-0.875-1.3047-1.3984-1.7656-0.52344-0.46094-1.0508-0.81641-1.5742-1.0742-0.52344-0.25391-1.0156-0.44141-1.4766-0.55469-0.46094-0.11719-0.83203-0.19922-1.1133-0.25-0.20312-0.050781-0.41406-0.089844-0.63281-0.11328-0.21875-0.027344-0.42969-0.054688-0.63281-0.078125-1.9961-0.10156-3.9648-0.1875-5.9102-0.25-1.9414-0.0625-3.8984-0.097657-5.8672-0.097657-1.6914 0-3.3516 0.035157-4.9883 0.097657s-3.2891 0.14844-4.9492 0.25c-0.82031 0.12891-1.5664 0.26953-2.2461 0.42188-0.67969 0.15234-1.375 0.44531-2.0898 0.88281-0.97266 0.5625-1.7227 1.2734-2.2461 2.1289-0.52344 0.85547-0.88672 1.8203-1.0938 2.8984-0.050781 0.20312-0.089844 0.41406-0.11328 0.63281-0.027344 0.21484-0.050782 0.42578-0.078125 0.63281zm13.66 5.1406c-1.1523-0.10156-2.0781-0.25-2.7812-0.44141s-1.2344-0.53125-1.5938-1.0156c-0.30469-0.43359-0.51172-1.0625-0.61328-1.8828-0.10156-0.81641-0.17969-1.8008-0.23047-2.9531 0.027343-1.0742 0.050781-1.9766 0.078125-2.7031 0.023437-0.73047 0.0625-1.3359 0.11328-1.8242 0.027344-0.10156 0.070312-0.30469 0.13672-0.61328 0.0625-0.30859 0.17188-0.60156 0.32422-0.88281 0.050782-0.12891 0.14062-0.27344 0.26953-0.44141 0.12891-0.16406 0.33203-0.35156 0.61328-0.55469 0.38281-0.28125 0.80469-0.49219 1.2656-0.63281 0.46094-0.14062 1.1641-0.23828 2.1094-0.28906h11.59c0.53516 0.050781 1.0352 0.10156 1.4961 0.15234 0.46094 0.050781 0.875 0.16797 1.2461 0.34766 0.37109 0.17969 0.69531 0.42188 0.97656 0.72656 0.28125 0.30859 0.5 0.73047 0.65234 1.2656 0.10547 0.28125 0.16797 0.55078 0.19531 0.80859 0.023437 0.25391 0.050781 0.53516 0.074219 0.84375v5.8711c-0.074219 0.66406-0.16016 1.168-0.25 1.5156-0.089844 0.34375-0.22266 0.65625-0.40234 0.9375-0.20312 0.35938-0.46094 0.64844-0.76562 0.86328-0.30859 0.21875-0.64062 0.38281-1 0.5-0.35547 0.11328-0.74609 0.20312-1.168 0.26953-0.42188 0.0625-0.85156 0.10938-1.2852 0.13281zm27.309-20.68v27.086h7.9023v-20.719c1.125 1.5117 2.2539 3.0117 3.3789 4.5117 1.125 1.4961 2.2617 2.9844 3.4141 4.4688 1.5586 1.9922 3.125 3.9648 4.6992 5.9062 1.5742 1.9453 3.1641 3.8906 4.7773 5.832h13.312v-27.086h-7.8242v8.4414l0.15234 12.43c-1.3047-1.6875-2.5977-3.3711-3.875-5.043-1.2812-1.6758-2.5703-3.3477-3.875-5.0078-1.457-1.8438-2.918-3.6523-4.375-5.4297-1.457-1.7773-2.9297-3.5742-4.4141-5.3906z" fill-rule="evenodd"/>
  </g>
 </g>
</svg>
